<?xml version="1.0" encoding="UTF-8"?><svg id="Layer_1" xmlns="http://www.w3.org/2000/svg" viewBox="0 0 115.82 92.69"><defs><style>.cls-1{fill:#000;}</style></defs><path class="cls-1" d="M71.09,.23c-3.08-.89-6.28,.9-7.17,3.98l-23.17,81.08c-.89,3.08,.9,6.28,3.98,7.17s6.28-.9,7.17-3.98L75.07,7.39c.89-3.08-.9-6.28-3.98-7.17h0Zm14.59,21.74c-2.26,2.26-2.26,5.94,0,8.2l16.16,16.18-16.18,16.18c-2.26,2.26-2.26,5.94,0,8.2s5.94,2.26,8.2,0l20.27-20.27c2.26-2.26,2.26-5.94,0-8.2l-20.27-20.27c-2.26-2.26-5.94-2.26-8.2,0l.02-.02Zm-55.51,0c-2.26-2.26-5.94-2.26-8.2,0L1.7,42.23c-2.26,2.26-2.26,5.94,0,8.2l20.27,20.27c2.26,2.26,5.94,2.26,8.2,0s2.26-5.94,0-8.2L13.99,46.34,30.17,30.16c2.26-2.26,2.26-5.94,0-8.2h0Z"/></svg>